<?xml version="1.0" encoding="UTF-8"?>
<svg width="256" height="256" viewBox="0 0 256 256" fill="none" xmlns="http://www.w3.org/2000/svg">
  <defs>
    <linearGradient id="g" x1="0" y1="0" x2="1" y2="1">
      <stop offset="0%" stop-color="#60A5FA"/>
      <stop offset="50%" stop-color="#7C3AED"/>
      <stop offset="100%" stop-color="#22D3EE"/>
    </linearGradient>
    <filter id="glow" x="-50%" y="-50%" width="200%" height="200%">
      <feGaussianBlur stdDeviation="6" result="b"/>
      <feMerge>
        <feMergeNode in="b"/>
        <feMergeNode in="SourceGraphic"/>
      </feMerge>
    </filter>
  </defs>
  <rect x="16" y="16" width="224" height="224" rx="28" fill="#0B0F1A"/>
  <path d="M44 144c48-8 88-40 112-88 4-8 8-8 8 0 0 46-14 78-44 96 22-4 42-12 58-26 8-8 16-8 10 4-18 36-58 56-110 56-8 0-14-2-20-6-8-6-10-16-14-32z" fill="url(#g)" filter="url(#glow)"/>
  <text x="128" y="210" fill="#E5E7EB" font-family="system-ui, -apple-system, Segoe UI, Roboto, sans-serif" font-size="28" text-anchor="middle" font-weight="700">FinWing</text>
</svg>
